<svg class="cursor-pointer" width="166" height="58" viewBox="0 0 166 58" fill="none" xmlns="http://www.w3.org/2000/svg"><g clip-path="url(#clip0_20003_123672)"><path d="M24.1899 35.0388C25.7701 34.9619 26.1185 36.0442 26.1185 36.0442C26.1185 36.0442 26.89 39.6359 29.0767 41.4743C31.1197 43.1906 35.7671 43.4426 38.7252 42.8006C41.6834 42.1587 42.9709 39.2088 42.9709 39.2088C42.9709 39.2088 45.3731 33.6912 45.4156 31.3833C45.4582 29.0728 43.0986 29.5875 40.1404 29.6723C37.1823 29.7572 29.2948 31.5531 26.9352 32.1526C25.7727 32.4471 24.839 32.4842 24.1899 32.4418C23.5435 32.4816 22.6071 32.4471 21.4446 32.1526C19.0876 31.5531 11.1975 29.7572 8.23668 29.6723C5.27854 29.5848 2.91894 29.0728 2.9615 31.3833C3.00407 33.6939 5.40623 39.2088 5.40623 39.2088C5.40623 39.2088 6.69376 42.1587 9.6519 42.8006C12.61 43.4426 17.2601 43.1932 19.3004 41.4743C21.4871 39.6359 22.2586 36.0442 22.2586 36.0442C22.2586 36.0442 22.6097 34.9619 24.1899 35.0388ZM41.7738 38.6093C40.6592 41.5167 37.0998 42.0738 32.6812 41.7316C28.2653 41.3894 26.8927 37.283 27.6641 34.9327C28.4356 32.5824 35.384 31.8529 35.384 31.8529C37.443 31.4682 42.6756 31.5107 42.8459 32.7521C42.9709 33.6435 42.8884 35.702 41.7738 38.6093ZM5.53658 32.7495C5.70683 31.508 10.9394 31.4656 12.9984 31.8502C12.9984 31.8502 19.9469 32.5771 20.7183 34.93C21.4898 37.283 20.1171 41.3867 15.7012 41.7289C11.2826 42.0738 7.72326 41.5167 6.60864 38.6093C5.49135 35.702 5.41155 33.6435 5.53658 32.7495Z" fill="#1773EA"></path><path d="M24.1899 35.0388C25.7701 34.9619 26.1185 36.0442 26.1185 36.0442C26.1185 36.0442 26.89 39.6359 29.0767 41.4743C31.1197 43.1906 35.7671 43.4426 38.7252 42.8006C41.6834 42.1587 42.9709 39.2088 42.9709 39.2088C42.9709 39.2088 45.3731 33.6912 45.4156 31.3833C45.4582 29.0728 43.0986 29.5875 40.1404 29.6723C37.1823 29.7572 29.2948 31.5531 26.9352 32.1526C25.7727 32.4471 24.839 32.4842 24.1899 32.4418C23.5435 32.4816 22.6071 32.4471 21.4446 32.1526C19.0876 31.5531 11.1975 29.7572 8.23668 29.6723C5.27854 29.5848 2.91894 29.0728 2.9615 31.3833C3.00407 33.6939 5.40623 39.2088 5.40623 39.2088C5.40623 39.2088 6.69376 42.1587 9.6519 42.8006C12.61 43.4426 17.2601 43.1932 19.3004 41.4743C21.4871 39.6359 22.2586 36.0442 22.2586 36.0442C22.2586 36.0442 22.6097 34.9619 24.1899 35.0388ZM41.7738 38.6093C40.6592 41.5167 37.0998 42.0738 32.6812 41.7316C28.2653 41.3894 26.8927 37.283 27.6641 34.9327C28.4356 32.5824 35.384 31.8529 35.384 31.8529C37.443 31.4682 42.6756 31.5107 42.8459 32.7521C42.9709 33.6435 42.8884 35.702 41.7738 38.6093ZM5.53658 32.7495C5.70683 31.508 10.9394 31.4656 12.9984 31.8502C12.9984 31.8502 19.9469 32.5771 20.7183 34.93C21.4898 37.283 20.1171 41.3867 15.7012 41.7289C11.2826 42.0738 7.72326 41.5167 6.60864 38.6093C5.49135 35.702 5.41155 33.6435 5.53658 32.7495Z" fill="black" fill-opacity="0.1"></path><path d="M40.2652 46.1893C41.2743 47.0209 42.3894 48.9298 42.4067 50.4219C42.4356 52.8455 40.8545 53.8134 39.0326 53.7347C37.0047 53.6483 35.1482 52.2579 33.9907 50.3144C32.3846 47.6143 30.8035 44.3899 27.6354 44.4014C27.2753 44.4033 24.4462 44.845 24.1824 45.5421C23.9186 44.845 21.0895 44.4033 20.7293 44.4014C17.5613 44.3899 15.9802 47.6143 14.374 50.3144C13.2185 52.2579 11.3601 53.6483 9.33409 53.7347C7.51223 53.8115 5.93111 52.8436 5.96 50.4219C5.9754 48.9317 7.09047 47.0209 8.10154 46.1893C5.88681 48.0118 4.04955 50.6005 5.73467 53.7981C8.02643 58.144 13.569 57.9155 16.9836 55.851C19.0519 54.6008 21.8617 50.6754 24.1824 51.0903C24.1824 51.0922 24.1824 51.096 24.1824 51.096C26.8478 51.5934 29.2994 54.5912 31.3812 55.8491C34.7958 57.9135 40.3384 58.1421 42.6301 53.7961C44.3172 50.6005 42.4799 48.0118 40.2652 46.1893Z" fill="#333333"></path><path d="M42.3091 49.5767C42.7924 50.2931 43.1372 51.0747 43.2527 51.9197C43.5686 49.5671 42.0414 47.6237 40.2734 46.168C41.1035 46.8516 42.0048 48.267 42.3091 49.5767Z" fill="#333333"></path><path d="M6.07131 49.5767C6.37367 48.267 7.27497 46.8516 8.10693 46.168C6.33708 47.6237 4.8118 49.5691 5.12764 51.9216C5.24319 51.0766 5.58792 50.2931 6.07131 49.5767Z" fill="#333333"></path><path d="M6.00947 51.1264C5.98059 51.3031 5.96325 51.4779 5.96133 51.6469C5.93244 54.0704 7.51356 55.0383 9.33542 54.9615C11.3633 54.8751 13.2199 53.4847 14.3754 51.5412C15.9815 48.843 17.5627 45.6167 20.7307 45.6282C21.0908 45.6301 23.9199 46.0718 24.1837 46.769C24.4476 46.0718 27.2766 45.6301 27.6368 45.6282C30.8048 45.6167 32.3859 48.8411 33.9921 51.5412C35.1476 53.4847 37.006 54.8751 39.034 54.9615C40.8558 55.0383 42.4369 54.0704 42.4081 51.6469C42.4061 51.4779 42.3888 51.3031 42.3599 51.1264C42.0922 53.0161 40.6594 53.7843 39.034 53.7152C37.006 53.6287 35.1495 52.2383 33.9921 50.2949C32.3859 47.5967 30.8048 44.3703 27.6368 44.3819C27.2766 44.3838 24.4476 44.8255 24.1837 45.5226C23.9218 44.8274 21.0927 44.3857 20.7326 44.3838C17.5646 44.3723 15.9835 47.5967 14.3773 50.2968C13.2218 52.2403 11.3633 53.6307 9.33734 53.7171C7.71 53.7843 6.27717 53.0161 6.00947 51.1264Z" fill="#333333"></path><path d="M40.2656 46.1885C41.1111 46.8856 42.0297 48.3394 42.3147 49.6702C42.3398 49.4705 42.3552 49.2612 42.3513 49.0365C42.3494 48.8003 42.3147 48.5525 42.2627 48.299C41.7216 47.5117 41.0148 46.8069 40.2656 46.1885Z" fill="#333333"></path><path d="M5.94496 48.5314C5.918 48.7042 5.90067 48.8732 5.89874 49.0365C5.89489 49.3898 5.92763 49.7086 5.98733 50.0005C6.17607 48.5871 7.17751 46.9432 8.09421 46.1885C7.2738 46.8664 6.50346 47.6499 5.94496 48.5314Z" fill="#333333"></path><path d="M43.2023 50.4486C43.1329 51.0746 42.9346 51.7295 42.5744 52.4112C40.2827 56.7572 34.7401 56.5286 31.3255 54.4642C29.2456 53.2063 26.794 50.2085 24.1267 49.7111C24.1267 49.7111 24.1267 49.7073 24.1267 49.7054C21.8061 49.2905 18.9962 53.2159 16.9279 54.4661C13.5114 56.5286 7.97075 56.7591 5.67899 52.4132C5.38819 51.862 5.2033 51.3281 5.10701 50.8134C5.00302 51.7372 5.17249 52.7339 5.73484 53.7978C8.0266 58.1437 13.5692 57.9152 16.9837 55.8507C19.0502 54.6005 21.86 50.6752 24.1806 51.09C24.1806 51.0919 24.1806 51.0957 24.1806 51.0957C26.8479 51.5931 29.2995 54.5909 31.3795 55.8488C34.794 57.9133 40.3366 58.1418 42.6284 53.7959C43.2639 52.5918 43.3987 51.4741 43.2023 50.4486Z" fill="#333333"></path><path d="M8.75 11.3262C8.75 11.3262 9.73172 2.50425 17.5084 0.714685C25.2851 -1.07488 28.6084 5.95083 28.6084 5.95083C28.6084 5.95083 29.0072 6.94503 29.1402 9.33112C29.1402 9.33112 23.4905 16.0917 21.7623 17.4836C21.7623 17.4836 16.1611 12.95 8.75 11.3262Z" fill="#1773EA"></path><path d="M8.75 11.3262C8.75 11.3262 9.73172 2.50425 17.5084 0.714685C25.2851 -1.07488 28.6084 5.95083 28.6084 5.95083C28.6084 5.95083 29.0072 6.94503 29.1402 9.33112C29.1402 9.33112 23.4905 16.0917 21.7623 17.4836C21.7623 17.4836 16.1611 12.95 8.75 11.3262Z" fill="black" fill-opacity="0.05"></path><path d="M21.3608 15.2589C21.4506 15.1568 19.2811 13.7557 19.1741 13.694C15.753 11.7222 12.2541 10.5033 8.30067 11.1164C5.4233 11.5625 2.21366 13.7411 1.25712 16.6243C-0.205177 21.0319 2.2754 25.3229 6.60575 26.9905C6.60508 26.9905 16.9075 20.2962 21.3608 15.2589Z" fill="#1773EA"></path><path d="M21.3608 15.2589C21.4506 15.1568 19.2811 13.7557 19.1741 13.694C15.753 11.7222 12.2541 10.5033 8.30067 11.1164C5.4233 11.5625 2.21366 13.7411 1.25712 16.6243C-0.205177 21.0319 2.2754 25.3229 6.60575 26.9905C6.60508 26.9905 16.9075 20.2962 21.3608 15.2589Z" fill="white" fill-opacity="0.1"></path><path d="M28.809 3.92548C28.8808 3.90427 28.9446 5.59574 28.9386 5.69715C28.8137 7.7598 26.8828 9.10263 25.5541 10.4441C23.8452 12.1688 22.1078 13.8655 20.3457 15.5358C16.5983 19.0878 12.7592 22.7133 8.47069 25.6177C7.80735 26.0671 7.02968 26.5052 6.3125 26.8651C6.3125 26.8651 7.24304 27.3887 9.1347 27.3887H24.7545C24.7545 27.3887 34.7911 20.4293 38.3139 14.6629C38.3139 14.6629 41.172 9.55931 36.5192 5.25109C36.5192 5.25109 33.7276 2.46731 28.809 3.92548Z" fill="#1773EA"></path><path d="M39.5451 12.5819C39.5451 12.5819 36.2217 19.3424 24.5234 27.3624H41.5391C41.5391 27.3624 46.4577 26.5007 47.3882 21.5297C48.3187 16.5587 44.8624 12.5156 39.5451 12.5819Z" fill="#1773EA"></path><path d="M39.5451 12.5819C39.5451 12.5819 36.2217 19.3424 24.5234 27.3624H41.5391C41.5391 27.3624 46.4577 26.5007 47.3882 21.5297C48.3187 16.5587 44.8624 12.5156 39.5451 12.5819Z" fill="white" fill-opacity="0.1"></path><path d="M56.5131 26.1445C55.9116 26.1445 55.4303 25.9841 55.0694 25.6633C54.7085 25.3425 54.528 24.9013 54.528 24.3399V11.9483C54.528 9.62237 55.1897 7.79771 56.5131 6.47434C57.8365 5.15096 59.6611 4.48927 61.9871 4.48927C63.1099 4.48927 64.1626 4.76999 65.1451 5.33142C66.1477 5.8728 67.0099 6.6548 67.7317 7.67741C68.4335 6.63475 69.2757 5.84273 70.2582 5.30135C71.2607 4.75996 72.3435 4.48927 73.5065 4.48927C75.8324 4.48927 77.657 5.15096 78.9804 6.47434C80.3038 7.79771 80.9655 9.62237 80.9655 11.9483V24.3399C80.9655 24.8813 80.775 25.3224 80.394 25.6633C80.0331 25.9841 79.5519 26.1445 78.9503 26.1445C78.3488 26.1445 77.8676 25.9841 77.5067 25.6633C77.1457 25.3425 76.9653 24.9013 76.9653 24.3399V11.9483C76.9653 10.4244 76.6846 9.33163 76.1231 8.66994C75.5617 7.9882 74.6394 7.64733 73.3561 7.64733C72.1931 7.64733 71.2908 8.01828 70.6492 8.76017C70.0276 9.50206 69.7168 10.5648 69.7168 11.9483V24.3399C69.7168 24.9013 69.5363 25.3425 69.1754 25.6633C68.8145 25.9841 68.3333 26.1445 67.7317 26.1445C67.1302 26.1445 66.649 25.9841 66.288 25.6633C65.9472 25.3425 65.7767 24.9013 65.7767 24.3399V11.9483C65.7767 10.6049 65.4559 9.55219 64.8143 8.79025C64.1727 8.0283 63.2804 7.64733 62.1375 7.64733C60.8542 7.64733 59.9318 7.9882 59.3704 8.66994C58.809 9.33163 58.5283 10.4244 58.5283 11.9483V24.3399C58.5283 24.8813 58.3378 25.3224 57.9568 25.6633C57.5959 25.9841 57.1146 26.1445 56.5131 26.1445ZM94.1755 26.1445C92.2907 26.1445 90.6365 25.7635 89.2129 25.0016C87.8093 24.2397 86.7165 23.1569 85.9345 21.7533C85.1725 20.3297 84.7916 18.6554 84.7916 16.7305V6.29388C84.7916 5.73245 84.972 5.29132 85.333 4.9705C85.6939 4.64968 86.1751 4.48927 86.7766 4.48927C87.3782 4.48927 87.8594 4.65971 88.2203 5.00058C88.6013 5.3214 88.7918 5.7525 88.7918 6.29388V16.8207C88.7918 18.8058 89.263 20.3297 90.2054 21.3924C91.1478 22.4551 92.5012 22.9865 94.2657 22.9865C96.0102 22.9865 97.3536 22.4551 98.296 21.3924C99.2585 20.3096 99.7397 18.7857 99.7397 16.8207V6.29388C99.7397 5.7525 99.9202 5.3214 100.281 5.00058C100.662 4.65971 101.153 4.48927 101.755 4.48927C102.356 4.48927 102.838 4.64968 103.199 4.9705C103.559 5.29132 103.74 5.73245 103.74 6.29388V16.7305C103.74 18.5953 103.339 20.2395 102.537 21.6631C101.755 23.0867 100.642 24.1895 99.1983 24.9715C97.7546 25.7535 96.0804 26.1445 94.1755 26.1445ZM109.407 26.1445C108.805 26.1445 108.324 25.9841 107.963 25.6633C107.602 25.3425 107.422 24.9013 107.422 24.3399V13.001C107.422 10.3342 108.254 8.24887 109.918 6.74503C111.583 5.24119 113.888 4.48927 116.836 4.48927C119.783 4.48927 122.089 5.24119 123.754 6.74503C125.418 8.24887 126.25 10.3342 126.25 13.001V24.3399C126.25 24.9013 126.07 25.3425 125.709 25.6633C125.348 25.9841 124.866 26.1445 124.265 26.1445C123.663 26.1445 123.172 25.9841 122.791 25.6633C122.43 25.3224 122.25 24.8813 122.25 24.3399V12.9108C122.25 11.2064 121.789 9.90308 120.866 9.00078C119.944 8.09848 118.6 7.64733 116.836 7.64733C115.071 7.64733 113.728 8.09848 112.806 9.00078C111.883 9.90308 111.422 11.2064 111.422 12.9108V24.3399C111.422 24.8813 111.232 25.3224 110.851 25.6633C110.49 25.9841 110.009 26.1445 109.407 26.1445ZM132.943 26.1445C132.342 26.1445 131.86 25.9841 131.5 25.6633C131.139 25.3425 130.958 24.9013 130.958 24.3399V6.29388C130.958 5.73245 131.139 5.29132 131.5 4.9705C131.86 4.64968 132.342 4.48927 132.943 4.48927C133.525 4.48927 134.006 4.64968 134.387 4.9705C134.768 5.29132 134.958 5.73245 134.958 6.29388V24.3399C134.958 24.9013 134.768 25.3425 134.387 25.6633C134.006 25.9841 133.525 26.1445 132.943 26.1445ZM141.806 26.1445C141.205 26.1445 140.724 25.9841 140.363 25.6633C140.002 25.3425 139.821 24.9013 139.821 24.3399V11.9483C139.821 9.62237 140.483 7.79771 141.806 6.47434C143.13 5.15096 144.954 4.48927 147.28 4.48927C148.403 4.48927 149.456 4.76999 150.438 5.33142C151.441 5.8728 152.303 6.6548 153.025 7.67741C153.727 6.63475 154.569 5.84273 155.552 5.30135C156.554 4.75996 157.637 4.48927 158.8 4.48927C161.126 4.48927 162.95 5.15096 164.274 6.47434C165.597 7.79771 166.259 9.62237 166.259 11.9483V24.3399C166.259 24.8813 166.068 25.3224 165.687 25.6633C165.326 25.9841 164.845 26.1445 164.244 26.1445C163.642 26.1445 163.161 25.9841 162.8 25.6633C162.439 25.3425 162.259 24.9013 162.259 24.3399V11.9483C162.259 10.4244 161.978 9.33163 161.416 8.66994C160.855 7.9882 159.933 7.64733 158.649 7.64733C157.486 7.64733 156.584 8.01828 155.943 8.76017C155.321 9.50206 155.01 10.5648 155.01 11.9483V24.3399C155.01 24.9013 154.83 25.3425 154.469 25.6633C154.108 25.9841 153.627 26.1445 153.025 26.1445C152.424 26.1445 151.942 25.9841 151.581 25.6633C151.241 25.3425 151.07 24.9013 151.07 24.3399V11.9483C151.07 10.6049 150.749 9.55219 150.108 8.79025C149.466 8.0283 148.574 7.64733 147.431 7.64733C146.148 7.64733 145.225 7.9882 144.664 8.66994C144.102 9.33163 143.822 10.4244 143.822 11.9483V24.3399C143.822 24.8813 143.631 25.3224 143.25 25.6633C142.889 25.9841 142.408 26.1445 141.806 26.1445Z" fill="#1773EA"></path><path d="M55.0694 25.6633L54.7737 25.9959L55.0694 25.6633ZM56.5131 6.47434L56.1984 6.15963L56.5131 6.47434ZM65.1451 5.33142L64.9243 5.71796L64.9337 5.72304L65.1451 5.33142ZM67.7317 7.67741L67.3681 7.93407L67.7404 8.46152L68.1009 7.92592L67.7317 7.67741ZM70.2582 5.30135L70.0467 4.90972L70.0434 4.91154L70.2582 5.30135ZM80.394 25.6633L80.6897 25.9959L80.6908 25.995L80.394 25.6633ZM77.5067 25.6633L77.211 25.9959L77.5067 25.6633ZM76.1231 8.66994L75.7795 8.9529L75.7838 8.95788L76.1231 8.66994ZM70.6492 8.76017L70.3125 8.469L70.308 8.47434L70.6492 8.76017ZM69.1754 25.6633L69.4711 25.9959L69.1754 25.6633ZM66.288 25.6633L65.9829 25.9875L65.9924 25.9959L66.288 25.6633ZM64.8143 8.79025L65.1547 8.50356L64.8143 8.79025ZM59.3704 8.66994L59.7098 8.95792L59.714 8.95287L59.3704 8.66994ZM57.9568 25.6633L58.2525 25.9959L58.2536 25.995L57.9568 25.6633ZM56.5131 25.6995C55.9928 25.6995 55.6259 25.5625 55.3651 25.3306L54.7737 25.9959C55.2348 26.4057 55.8304 26.5896 56.5131 26.5896V25.6995ZM55.3651 25.3306C55.115 25.1083 54.9731 24.797 54.9731 24.3399H54.083C54.083 25.0057 54.302 25.5766 54.7737 25.9959L55.3651 25.3306ZM54.9731 24.3399V11.9483H54.083V24.3399H54.9731ZM54.9731 11.9483C54.9731 9.71008 55.6072 8.00971 56.8278 6.78904L56.1984 6.15963C54.7723 7.58572 54.083 9.53466 54.083 11.9483H54.9731ZM56.8278 6.78904C58.0485 5.56838 59.7488 4.93434 61.9871 4.93434V4.04421C59.5734 4.04421 57.6245 4.73354 56.1984 6.15963L56.8278 6.78904ZM61.9871 4.93434C63.0319 4.93434 64.0085 5.19453 64.9243 5.71784L65.3659 4.945C64.3167 4.34545 63.188 4.04421 61.9871 4.04421V4.93434ZM64.9337 5.72304C65.87 6.22866 66.6819 6.96196 67.3681 7.93407L68.0953 7.42075C67.3378 6.34763 66.4254 5.51695 65.3566 4.93981L64.9337 5.72304ZM68.1009 7.92592C68.768 6.93481 69.5596 6.19445 70.473 5.69115L70.0434 4.91154C68.9918 5.49101 68.099 6.33469 67.3625 7.42889L68.1009 7.92592ZM70.4696 5.69296C71.4059 5.18741 72.4157 4.93434 73.5065 4.93434V4.04421C72.2713 4.04421 71.1156 4.33252 70.0467 4.90973L70.4696 5.69296ZM73.5065 4.93434C75.7447 4.93434 77.4451 5.56838 78.6657 6.78904L79.2951 6.15963C77.869 4.73355 75.9201 4.04421 73.5065 4.04421V4.93434ZM78.6657 6.78904C79.8864 8.00971 80.5204 9.71008 80.5204 11.9483H81.4106C81.4106 9.53466 80.7212 7.58572 79.2951 6.15963L78.6657 6.78904ZM80.5204 11.9483V24.3399H81.4106V11.9483H80.5204ZM80.5204 24.3399C80.5204 24.7631 80.3778 25.0806 80.0973 25.3316L80.6908 25.995C81.1723 25.5642 81.4106 24.9995 81.4106 24.3399H80.5204ZM80.0983 25.3306C79.8375 25.5625 79.4707 25.6995 78.9503 25.6995V26.5896C79.6331 26.5896 80.2287 26.4057 80.6897 25.9959L80.0983 25.3306ZM78.9503 25.6995C78.43 25.6995 78.0632 25.5625 77.8023 25.3306L77.211 25.9959C77.672 26.4057 78.2676 26.5896 78.9503 26.5896V25.6995ZM77.8023 25.3306C77.5522 25.1083 77.4103 24.797 77.4103 24.3399H76.5202C76.5202 25.0057 76.7393 25.5766 77.211 25.9959L77.8023 25.3306ZM77.4103 24.3399V11.9483H76.5202V24.3399H77.4103ZM77.4103 11.9483C77.4103 10.3909 77.1275 9.16579 76.4625 8.38199L75.7838 8.95788C76.2416 9.49746 76.5202 10.4579 76.5202 11.9483H77.4103ZM76.4667 8.38701C75.7878 7.56268 74.7101 7.20227 73.3561 7.20227V8.09239C74.5686 8.09239 75.3356 8.41372 75.7796 8.95287L76.4667 8.38701ZM73.3561 7.20227C72.0903 7.20227 71.0546 7.61105 70.3125 8.46903L70.9858 9.05131C71.527 8.42551 72.2959 8.09239 73.3561 8.09239V7.20227ZM70.308 8.47434C69.5956 9.32465 69.2717 10.5043 69.2717 11.9483H70.1619C70.1619 10.6252 70.4596 9.67947 70.9903 9.046L70.308 8.47434ZM69.2717 11.9483V24.3399H70.1619V11.9483H69.2717ZM69.2717 24.3399C69.2717 24.797 69.1298 25.1083 68.8797 25.3306L69.4711 25.9959C69.9428 25.5766 70.1619 25.0057 70.1619 24.3399H69.2717ZM68.8797 25.3306C68.6189 25.5625 68.2521 25.6995 67.7317 25.6995V26.5896C68.4144 26.5896 69.0101 26.4057 69.4711 25.9959L68.8797 25.3306ZM67.7317 25.6995C67.2114 25.6995 66.8445 25.5625 66.5837 25.3306L65.9924 25.9959C66.4534 26.4057 67.049 26.5896 67.7317 26.5896V25.6995ZM66.5931 25.3392C66.3592 25.119 66.2218 24.8051 66.2218 24.3399H65.3317C65.3317 24.9976 65.5352 25.5659 65.983 25.9874L66.5931 25.3392ZM66.2218 24.3399V11.9483H65.3317V24.3399H66.2218ZM66.2218 11.9483C66.2218 10.5367 65.8843 9.36995 65.1547 8.50356L64.4739 9.07693C65.0275 9.73442 65.3317 10.6731 65.3317 11.9483H66.2218ZM65.1547 8.50356C64.4155 7.62577 63.3901 7.20227 62.1375 7.20227V8.09239C63.1707 8.09239 63.9298 8.43083 64.4739 9.07693L65.1547 8.50356ZM62.1375 7.20227C60.7834 7.20227 59.7057 7.56268 59.0268 8.38701L59.714 8.95287C60.158 8.41372 60.9249 8.09239 62.1375 8.09239V7.20227ZM59.031 8.38199C58.366 9.16579 58.0832 10.3909 58.0832 11.9483H58.9733C58.9733 10.4579 59.2519 9.49746 59.7098 8.95788L59.031 8.38199ZM58.0832 11.9483V24.3399H58.9733V11.9483H58.0832ZM58.0832 24.3399C58.0832 24.7631 57.9405 25.0806 57.66 25.3316L58.2536 25.995C58.735 25.5642 58.9733 24.9995 58.9733 24.3399H58.0832ZM57.6611 25.3306C57.4003 25.5625 57.0335 25.6995 56.5131 25.6995V26.5896C57.1958 26.5896 57.7914 26.4057 58.2525 25.9959L57.6611 25.3306ZM89.2129 25.0016L89.0005 25.3928L89.0028 25.394L89.2129 25.0016ZM85.9345 21.7533L85.542 21.9634L85.5457 21.9699L85.9345 21.7533ZM85.333 4.9705L85.6286 5.30315V5.30315L85.333 4.9705ZM88.2203 5.00058L87.9147 5.32415L87.9239 5.33285L87.9336 5.34101L88.2203 5.00058ZM90.2054 21.3924L89.8724 21.6877L90.2054 21.3924ZM98.296 21.3924L97.9634 21.0967L97.963 21.0971L98.296 21.3924ZM100.281 5.00058L100.577 5.33323L100.578 5.33226L100.281 5.00058ZM103.199 4.9705L102.903 5.30315V5.30315L103.199 4.9705ZM102.537 21.6631L102.149 21.4446L102.147 21.4488L102.537 21.6631ZM99.1983 24.9715L98.9864 24.5802L99.1983 24.9715ZM94.1755 25.6995C92.3517 25.6995 90.7719 25.3312 89.4229 24.6092L89.0028 25.394C90.5011 26.1959 92.2297 26.5896 94.1755 26.5896V25.6995ZM89.4252 24.6105C88.0963 23.889 87.0645 22.867 86.3233 21.5367L85.5457 21.9699C86.3685 23.4468 87.5223 24.5903 89.0005 25.3927L89.4252 24.6105ZM86.3269 21.5433C85.6056 20.1956 85.2366 18.5962 85.2366 16.7305H84.3465C84.3465 18.7147 84.7395 20.4638 85.5421 21.9633L86.3269 21.5433ZM85.2366 16.7305V6.29388H84.3465V16.7305H85.2366ZM85.2366 6.29388C85.2366 5.83679 85.3785 5.52547 85.6286 5.30315L85.0373 4.63786C84.5655 5.05717 84.3465 5.6281 84.3465 6.29388H85.2366ZM85.6286 5.30315C85.8895 5.07131 86.2563 4.93434 86.7766 4.93434V4.04421C86.0939 4.04421 85.4983 4.22805 85.0373 4.63786L85.6286 5.30315ZM86.7766 4.93434C87.29 4.93434 87.6532 5.07718 87.9147 5.32415L88.5259 4.67701C88.0656 4.24224 87.4664 4.04421 86.7766 4.04421V4.93434ZM87.9336 5.34101C88.2047 5.56926 88.3467 5.87083 88.3467 6.29388H89.2368C89.2368 5.63417 88.9979 5.07353 88.507 4.66014L87.9336 5.34101ZM88.3467 6.29388V16.8207H89.2368V6.29388H88.3467ZM88.3467 16.8207C88.3467 18.8715 88.8335 20.5162 89.8724 21.6877L90.5384 21.0971C89.6924 20.1432 89.2368 18.7401 89.2368 16.8207H88.3467ZM89.8724 21.6877C90.9191 22.868 92.4072 23.4315 94.2657 23.4315V22.5414C92.5953 22.5414 91.3765 22.0422 90.5384 21.0971L89.8724 21.6877ZM94.2657 23.4315C96.106 23.4315 97.5833 22.8669 98.629 21.6877L97.963 21.0971C97.1239 22.0433 95.9144 22.5414 94.2657 22.5414V23.4315ZM98.6287 21.6881C99.6859 20.4987 100.185 18.8555 100.185 16.8207H99.2946C99.2946 18.7159 98.831 20.1206 97.9634 21.0967L98.6287 21.6881ZM100.185 16.8207V6.29388H99.2946V16.8207H100.185ZM100.185 6.29388C100.185 5.86247 100.323 5.55882 100.577 5.33322L99.9854 4.66793C99.5174 5.08397 99.2946 5.64252 99.2946 6.29388H100.185ZM100.578 5.33226C100.863 5.077 101.242 4.93434 101.755 4.93434V4.04421C101.064 4.04421 100.461 4.24242 99.9843 4.6689L100.578 5.33226ZM101.755 4.93434C102.275 4.93434 102.642 5.07131 102.903 5.30315L103.494 4.63786C103.033 4.22805 102.438 4.04421 101.755 4.04421V4.93434ZM102.903 5.30315C103.153 5.52547 103.295 5.83679 103.295 6.29388H104.185C104.185 5.6281 103.966 5.05717 103.494 4.63786L102.903 5.30315ZM103.295 6.29388V16.7305H104.185V6.29388H103.295ZM103.295 16.7305C103.295 18.5297 102.909 20.0966 102.149 21.4446L102.925 21.8815C103.769 20.3823 104.185 18.6608 104.185 16.7305H103.295ZM102.147 21.4488C101.406 22.7967 100.356 23.8384 98.9864 24.5802L99.4103 25.3629C100.928 24.5406 102.103 23.3767 102.927 21.8774L102.147 21.4488ZM98.9864 24.5802C97.6175 25.3216 96.0183 25.6995 94.1755 25.6995V26.5896C96.1425 26.5896 97.8918 26.1854 99.4103 25.3629L98.9864 24.5802ZM107.963 25.6633L108.259 25.3306L107.963 25.6633ZM109.918 6.74503L109.62 6.41481V6.41481L109.918 6.74503ZM123.754 6.74503L124.052 6.41481V6.41481L123.754 6.74503ZM125.709 25.6633L126.004 25.9959L125.709 25.6633ZM122.791 25.6633L122.486 25.9869L122.495 25.9956L122.504 26.0037L122.791 25.6633ZM120.866 9.00078L120.555 9.31893L120.866 9.00078ZM112.806 9.00078L113.117 9.31893L112.806 9.00078ZM110.851 25.6633L111.146 25.9959L111.147 25.995L110.851 25.6633ZM109.407 25.6995C108.887 25.6995 108.52 25.5625 108.259 25.3306L107.668 25.9959C108.129 26.4057 108.724 26.5896 109.407 26.5896V25.6995ZM108.259 25.3306C108.009 25.1083 107.867 24.797 107.867 24.3399H106.977C106.977 25.0057 107.196 25.5766 107.668 25.9959L108.259 25.3306ZM107.867 24.3399V13.001H106.977V24.3399H107.867ZM107.867 13.001C107.867 10.4341 108.664 8.47874 110.217 7.07525L109.62 6.41481C107.845 8.01899 106.977 10.2343 106.977 13.001H107.867ZM110.217 7.07525C111.776 5.66606 113.963 4.93434 116.836 4.93434V4.04421C113.814 4.04421 111.389 4.81632 109.62 6.41481L110.217 7.07525ZM116.836 4.93434C119.709 4.93434 121.896 5.66606 123.455 7.07525L124.052 6.41481C122.283 4.81632 119.858 4.04421 116.836 4.04421V4.93434ZM123.455 7.07525C125.008 8.47874 125.805 10.4341 125.805 13.001H126.695C126.695 10.2343 125.827 8.01899 124.052 6.41481L123.455 7.07525ZM125.805 13.001V24.3399H126.695V13.001H125.805ZM125.805 24.3399C125.805 24.797 125.663 25.1083 125.413 25.3306L126.004 25.9959C126.476 25.5766 126.695 25.0057 126.695 24.3399H125.805ZM125.413 25.3306C125.152 25.5625 124.785 25.6995 124.265 25.6995V26.5896C124.948 26.5896 125.543 26.4057 126.004 25.9959L125.413 25.3306ZM124.265 25.6995C123.746 25.6995 123.363 25.5628 123.078 25.3229L122.504 26.0037C122.982 26.4054 123.581 26.5896 124.265 26.5896V25.6995ZM123.097 25.3397C122.833 25.091 122.695 24.7712 122.695 24.3399H121.805C121.805 24.9914 122.027 25.5538 122.486 25.9869L123.097 25.3397ZM122.695 24.3399V12.9108H121.805V24.3399H122.695ZM122.695 12.9108C122.695 11.1266 122.21 9.693 121.177 8.68264L120.555 9.31893C121.367 10.1132 121.805 11.2862 121.805 12.9108H122.695ZM121.177 8.68264C120.145 7.67286 118.673 7.20227 116.836 7.20227V8.09239C118.528 8.09239 119.743 8.5241 120.555 9.31893L121.177 8.68264ZM116.836 7.20227C114.999 7.20227 113.527 7.67286 112.494 8.68264L113.117 9.31893C113.929 8.5241 115.144 8.09239 116.836 8.09239V7.20227ZM112.494 8.68264C111.462 9.693 110.977 11.1266 110.977 12.9108H111.867C111.867 11.2862 112.305 10.1132 113.117 9.31893L112.494 8.68264ZM110.977 12.9108V24.3399H111.867V12.9108H110.977ZM110.977 24.3399C110.977 24.7631 110.834 25.0806 110.554 25.3316L111.147 25.995C111.629 25.5642 111.867 24.9995 111.867 24.3399H110.977ZM110.555 25.3306C110.294 25.5625 109.927 25.6995 109.407 25.6995V26.5896C110.09 26.5896 110.685 26.4057 111.146 25.9959L110.555 25.3306ZM131.5 25.6633L131.204 25.9959L131.5 25.6633ZM131.5 4.9705L131.795 5.30315V5.30315L131.5 4.9705ZM134.387 4.9705L134.1 5.31094L134.1 5.31094L134.387 4.9705ZM134.387 25.6633L134.1 25.3229L134.387 25.6633ZM132.943 25.6995C132.423 25.6995 132.056 25.5625 131.795 25.3306L131.204 25.9959C131.665 26.4057 132.261 26.5896 132.943 26.5896V25.6995ZM131.795 25.3306C131.545 25.1083 131.403 24.797 131.403 24.3399H130.513C130.513 25.0057 130.732 25.5766 131.204 25.9959L131.795 25.3306ZM131.403 24.3399V6.29388H130.513V24.3399H131.403ZM131.403 6.29388C131.403 5.83679 131.545 5.52547 131.795 5.30315L131.204 4.63786C130.732 5.05717 130.513 5.6281 130.513 6.29388H131.403ZM131.795 5.30315C132.056 5.07131 132.423 4.93434 132.943 4.93434V4.04421C132.261 4.04421 131.665 4.22805 131.204 4.63786L131.795 5.30315ZM132.943 4.93434C133.438 4.93434 133.813 5.06872 134.1 5.31094L134.674 4.63007C134.199 4.23065 133.611 4.04421 132.943 4.04421V4.93434ZM134.1 5.31094C134.367 5.53581 134.513 5.84498 134.513 6.29388H135.403C135.403 5.61991 135.169 5.04683 134.674 4.63007L134.1 5.31094ZM134.513 6.29388V24.3399H135.403V6.29388H134.513ZM134.513 24.3399C134.513 24.7888 134.367 25.098 134.1 25.3229L134.674 26.0037C135.169 25.587 135.403 25.0139 135.403 24.3399H134.513ZM134.1 25.3229C133.813 25.5651 133.438 25.6995 132.943 25.6995V26.5896C133.611 26.5896 134.199 26.4031 134.674 26.0037L134.1 25.3229ZM140.363 25.6633L140.067 25.9959L140.363 25.6633ZM141.806 6.47434L141.492 6.15963L141.806 6.47434ZM150.438 5.33142L150.218 5.71796L150.227 5.72304L150.438 5.33142ZM153.025 7.67741L152.661 7.93407L153.034 8.46152L153.394 7.92592L153.025 7.67741ZM155.552 5.30135L155.34 4.90972L155.337 4.91154L155.552 5.30135ZM165.687 25.6633L165.983 25.9959L165.984 25.995L165.687 25.6633ZM162.8 25.6633L162.504 25.9959L162.8 25.6633ZM161.416 8.66994L161.073 8.9529L161.077 8.95788L161.416 8.66994ZM155.943 8.76017L155.606 8.469L155.601 8.47434L155.943 8.76017ZM154.469 25.6633L154.764 25.9959L154.469 25.6633ZM151.581 25.6633L151.276 25.9875L151.286 25.9959L151.581 25.6633ZM150.108 8.79025L150.448 8.50356L150.108 8.79025ZM144.664 8.66994L145.003 8.95792L145.007 8.95287L144.664 8.66994ZM143.25 25.6633L143.546 25.9959L143.547 25.995L143.25 25.6633ZM141.806 25.6995C141.286 25.6995 140.919 25.5625 140.658 25.3306L140.067 25.9959C140.528 26.4057 141.124 26.5896 141.806 26.5896V25.6995ZM140.658 25.3306C140.408 25.1083 140.266 24.797 140.266 24.3399H139.376C139.376 25.0057 139.595 25.5766 140.067 25.9959L140.658 25.3306ZM140.266 24.3399V11.9483H139.376V24.3399H140.266ZM140.266 11.9483C140.266 9.71008 140.901 8.00971 142.121 6.78904L141.492 6.15963C140.066 7.58572 139.376 9.53466 139.376 11.9483H140.266ZM142.121 6.78904C143.342 5.56838 145.042 4.93434 147.28 4.93434V4.04421C144.867 4.04421 142.918 4.73354 141.492 6.15963L142.121 6.78904ZM147.28 4.93434C148.325 4.93434 149.302 5.19453 150.218 5.71784L150.659 4.945C149.61 4.34545 148.481 4.04421 147.28 4.04421V4.93434ZM150.227 5.72304C151.163 6.22866 151.975 6.96196 152.661 7.93407L153.389 7.42075C152.631 6.34763 151.719 5.51695 150.65 4.93981L150.227 5.72304ZM153.394 7.92592C154.061 6.93481 154.853 6.19445 155.766 5.69115L155.337 4.91154C154.285 5.49101 153.392 6.33469 152.656 7.42889L153.394 7.92592ZM155.763 5.69296C156.699 5.18741 157.709 4.93434 158.8 4.93434V4.04421C157.565 4.04421 156.409 4.33252 155.34 4.90973L155.763 5.69296ZM158.8 4.93434C161.038 4.93434 162.738 5.56838 163.959 6.78904L164.588 6.15963C163.162 4.73355 161.213 4.04421 158.8 4.04421V4.93434ZM163.959 6.78904C165.18 8.00971 165.814 9.71008 165.814 11.9483H166.704C166.704 9.53466 166.015 7.58572 164.588 6.15963L163.959 6.78904ZM165.814 11.9483V24.3399H166.704V11.9483H165.814ZM165.814 24.3399C165.814 24.7631 165.671 25.0806 165.391 25.3316L165.984 25.995C166.466 25.5642 166.704 24.9995 166.704 24.3399H165.814ZM165.392 25.3306C165.131 25.5625 164.764 25.6995 164.244 25.6995V26.5896C164.926 26.5896 165.522 26.4057 165.983 25.9959L165.392 25.3306ZM164.244 25.6995C163.723 25.6995 163.357 25.5625 163.096 25.3306L162.504 25.9959C162.965 26.4057 163.561 26.5896 164.244 26.5896V25.6995ZM163.096 25.3306C162.846 25.1083 162.704 24.797 162.704 24.3399H161.814C161.814 25.0057 162.033 25.5766 162.504 25.9959L163.096 25.3306ZM162.704 24.3399V11.9483H161.814V24.3399H162.704ZM162.704 11.9483C162.704 10.3909 162.421 9.16579 161.756 8.38199L161.077 8.95788C161.535 9.49746 161.814 10.4579 161.814 11.9483H162.704ZM161.76 8.38701C161.081 7.56268 160.003 7.20227 158.649 7.20227V8.09239C159.862 8.09239 160.629 8.41372 161.073 8.95287L161.76 8.38701ZM158.649 7.20227C157.384 7.20227 156.348 7.61105 155.606 8.46903L156.279 9.05131C156.82 8.42551 157.589 8.09239 158.649 8.09239V7.20227ZM155.601 8.47434C154.889 9.32465 154.565 10.5043 154.565 11.9483H155.455C155.455 10.6252 155.753 9.67947 156.284 9.046L155.601 8.47434ZM154.565 11.9483V24.3399H155.455V11.9483H154.565ZM154.565 24.3399C154.565 24.797 154.423 25.1083 154.173 25.3306L154.764 25.9959C155.236 25.5766 155.455 25.0057 155.455 24.3399H154.565ZM154.173 25.3306C153.912 25.5625 153.545 25.6995 153.025 25.6995V26.5896C153.708 26.5896 154.303 26.4057 154.764 25.9959L154.173 25.3306ZM153.025 25.6995C152.505 25.6995 152.138 25.5625 151.877 25.3306L151.286 25.9959C151.747 26.4057 152.342 26.5896 153.025 26.5896V25.6995ZM151.886 25.3392C151.653 25.119 151.515 24.8051 151.515 24.3399H150.625C150.625 24.9976 150.829 25.5659 151.276 25.9874L151.886 25.3392ZM151.515 24.3399V11.9483H150.625V24.3399H151.515ZM151.515 11.9483C151.515 10.5367 151.178 9.36995 150.448 8.50356L149.767 9.07693C150.321 9.73442 150.625 10.6731 150.625 11.9483H151.515ZM150.448 8.50356C149.709 7.62577 148.683 7.20227 147.431 7.20227V8.09239C148.464 8.09239 149.223 8.43083 149.767 9.07693L150.448 8.50356ZM147.431 7.20227C146.077 7.20227 144.999 7.56268 144.32 8.38701L145.007 8.95287C145.451 8.41372 146.218 8.09239 147.431 8.09239V7.20227ZM144.324 8.38199C143.659 9.16579 143.377 10.3909 143.377 11.9483H144.267C144.267 10.4579 144.545 9.49746 145.003 8.95788L144.324 8.38199ZM143.377 11.9483V24.3399H144.267V11.9483H143.377ZM143.377 24.3399C143.377 24.7631 143.234 25.0806 142.953 25.3316L143.547 25.995C144.028 25.5642 144.267 24.9995 144.267 24.3399H143.377ZM142.954 25.3306C142.694 25.5625 142.327 25.6995 141.806 25.6995V26.5896C142.489 26.5896 143.085 26.4057 143.546 25.9959L142.954 25.3306Z" fill="#1773EA"></path><rect x="52.4141" y="30.0771" width="64.8798" height="27.0332" rx="8" fill="#FFC201"></rect><path d="M63.2093 50.6982H58.1913V36.5427H63.2508C64.6746 36.5427 65.9003 36.826 66.9279 37.3928C67.9555 37.955 68.7457 38.7637 69.2987 39.8189C69.8563 40.8741 70.135 42.1367 70.135 43.6066C70.135 45.0812 69.8563 46.3483 69.2987 47.4082C68.7457 48.468 67.9509 49.2813 66.9141 49.8481C65.8819 50.4149 64.647 50.6982 63.2093 50.6982ZM61.1841 48.1339H63.0849C63.9696 48.1339 64.7138 47.9773 65.3174 47.6639C65.9257 47.346 66.3819 46.8552 66.686 46.1917C66.9947 45.5235 67.1491 44.6618 67.1491 43.6066C67.1491 42.5606 66.9947 41.7058 66.686 41.0423C66.3819 40.3788 65.928 39.8903 65.3243 39.577C64.7207 39.2636 63.9765 39.107 63.0918 39.107H61.1841V48.1339ZM77.1351 50.9056C76.043 50.9056 75.103 50.6844 74.315 50.2421C73.5317 49.7951 72.928 49.1638 72.5041 48.3482C72.0802 47.528 71.8682 46.558 71.8682 45.4383C71.8682 44.3462 72.0802 43.3877 72.5041 42.5629C72.928 41.7381 73.5248 41.0953 74.2943 40.6345C75.0684 40.1737 75.9762 39.9433 77.0176 39.9433C77.718 39.9433 78.37 40.0562 78.9736 40.282C79.5819 40.5032 80.1118 40.8373 80.5634 41.2842C81.0196 41.7312 81.3744 42.2934 81.6278 42.9707C81.8813 43.6435 82.008 44.4314 82.008 45.3346V46.1433H73.0432V44.3185H79.2363C79.2363 43.8946 79.1441 43.5191 78.9598 43.1919C78.7755 42.8647 78.5198 42.609 78.1926 42.4247C77.87 42.2358 77.4945 42.1413 77.066 42.1413C76.619 42.1413 76.2227 42.245 75.8771 42.4523C75.5361 42.6551 75.2689 42.9293 75.0753 43.2749C74.8818 43.6158 74.7827 43.996 74.7781 44.4153V46.1502C74.7781 46.6755 74.8749 47.1294 75.0684 47.5119C75.2666 47.8943 75.5453 48.1892 75.9048 48.3966C76.2642 48.6039 76.6904 48.7076 77.1835 48.7076C77.5106 48.7076 77.8101 48.6615 78.082 48.5694C78.3539 48.4772 78.5866 48.339 78.7801 48.1547C78.9736 47.9703 79.1211 47.7446 79.2225 47.4773L81.9458 47.657C81.8075 48.3113 81.5241 48.8827 81.0956 49.3712C80.6717 49.855 80.1233 50.2328 79.4506 50.5047C78.7824 50.772 78.0106 50.9056 77.1351 50.9056ZM83.9295 50.6982V40.0815H86.7357V41.9547H86.8601C87.0813 41.3326 87.4499 40.8419 87.966 40.4824C88.4821 40.123 89.0996 39.9433 89.8184 39.9433C90.5465 39.9433 91.1662 40.1253 91.6777 40.4894C92.1892 40.8488 92.5302 41.3372 92.7007 41.9547H92.8113C93.0279 41.3464 93.4195 40.8603 93.9863 40.4963C94.5577 40.1276 95.2328 39.9433 96.0115 39.9433C97.0022 39.9433 97.8063 40.259 98.4238 40.8902C99.0458 41.5169 99.3569 42.4063 99.3569 43.5582V50.6982H96.4193V44.1388C96.4193 43.549 96.2626 43.1067 95.9493 42.8118C95.636 42.5168 95.2443 42.3694 94.7743 42.3694C94.2397 42.3694 93.8227 42.5399 93.5232 42.8809C93.2237 43.2173 93.0739 43.6619 93.0739 44.2149V50.6982H90.2193V44.0766C90.2193 43.5559 90.0696 43.1412 89.77 42.8325C89.4751 42.5238 89.0858 42.3694 88.6019 42.3694C88.2748 42.3694 87.9799 42.4523 87.7172 42.6182C87.4592 42.7795 87.2541 43.0076 87.102 43.3025C86.95 43.5928 86.874 43.9338 86.874 44.3255V50.6982H83.9295ZM106.48 50.9056C105.406 50.9056 104.477 50.6775 103.694 50.2213C102.915 49.7605 102.314 49.12 101.89 48.2998C101.466 47.475 101.254 46.5188 101.254 45.4314C101.254 44.3347 101.466 43.3762 101.89 42.556C102.314 41.7312 102.915 41.0907 103.694 40.6345C104.477 40.1737 105.406 39.9433 106.48 39.9433C107.553 39.9433 108.479 40.1737 109.258 40.6345C110.042 41.0907 110.645 41.7312 111.069 42.556C111.493 43.3762 111.705 44.3347 111.705 45.4314C111.705 46.5188 111.493 47.475 111.069 48.2998C110.645 49.12 110.042 49.7605 109.258 50.2213C108.479 50.6775 107.553 50.9056 106.48 50.9056ZM106.493 48.6247C106.982 48.6247 107.39 48.4864 107.717 48.21C108.044 47.9289 108.291 47.5464 108.456 47.0626C108.627 46.5787 108.712 46.0281 108.712 45.4106C108.712 44.7932 108.627 44.2425 108.456 43.7587C108.291 43.2749 108.044 42.8924 107.717 42.6113C107.39 42.3302 106.982 42.1897 106.493 42.1897C106 42.1897 105.586 42.3302 105.249 42.6113C104.917 42.8924 104.666 43.2749 104.496 43.7587C104.33 44.2425 104.247 44.7932 104.247 45.4106C104.247 46.0281 104.33 46.5787 104.496 47.0626C104.666 47.5464 104.917 47.9289 105.249 48.21C105.586 48.4864 106 48.6247 106.493 48.6247Z" fill="black"></path></g><defs><clipPath id="clip0_20003_123672"><rect width="166" height="58" fill="white"></rect></clipPath></defs></svg>